<svg preserveAspectRatio="none" width="100%" height="100%" overflow="visible" style="display: block;" viewBox="0 0 198 198" fill="none" xmlns="http://www.w3.org/2000/svg">
<g id="pineapple (1) 1">
<g id="Vector">
<path d="M167.107 39.8908C166.562 38.3439 165.1 37.3087 163.459 37.3087C153.843 37.3087 144.478 38.8355 135.794 41.7625C142.446 28.8121 150.673 20.493 150.77 20.3952C151.88 19.2907 152.214 17.6259 151.617 16.1788C151.019 14.7317 149.608 13.7877 148.042 13.7877C136.544 13.7877 125.625 17.8649 116.58 25.4094C115.027 19.8162 112.741 14.4095 109.939 9.77509C107.243 5.31545 103.162 0 99.0317 0C94.5802 0 90.4489 5.34793 87.7666 9.83426C85.058 14.3651 82.8506 19.7091 81.3459 25.2968C72.3272 17.825 61.4612 13.7873 50.0205 13.7873C48.4562 13.7873 47.0474 14.7309 46.4492 16.1761C45.8509 17.6212 46.1831 19.2861 47.2891 20.3921C47.3893 20.4922 55.6268 28.8225 62.2814 41.7873C53.5768 38.844 44.1853 37.3083 34.5413 37.3083C32.9009 37.3083 31.4391 38.3432 30.8938 39.8904C30.3489 41.4377 30.8389 43.1605 32.117 44.1888C32.1611 44.2244 36.6153 47.8274 42.3152 54.1043C43.751 55.6856 46.197 55.8031 47.7779 54.3672C49.3592 52.9317 49.4772 50.4857 48.0413 48.9048C46.9999 47.7582 45.9975 46.6947 45.0496 45.7187C52.9615 46.7485 60.4434 48.9396 67.2341 52.1339C67.7771 52.627 68.4496 52.9546 69.1693 53.0814C78.4687 57.8137 86.3586 64.4873 92.1083 72.7031H87.8768C80.4974 72.7031 73.5121 74.4202 67.2964 77.4718C66.086 74.8235 64.7158 72.1602 63.2065 69.532C62.1434 67.68 59.7805 67.0404 57.927 68.1043C56.075 69.1677 55.4361 71.5318 56.4996 73.3837C58.0411 76.068 59.4162 78.7858 60.6112 81.4751C48.7548 89.9867 41.0162 103.888 41.0162 119.565V151.139C41.0154 176.978 62.037 198 87.8764 198H110.17C136.009 198 157.031 176.978 157.031 151.139V119.564C157.031 103.87 149.275 89.9546 137.396 81.4457C147.175 59.4534 165.698 44.3389 165.883 44.1888C167.161 43.1605 167.651 41.4377 167.107 39.8908ZM138.749 22.623C134.591 28.087 129.272 36.2027 125.293 46.156C124.559 46.5292 123.832 46.9125 123.113 47.3085C115.649 51.4181 109.125 56.6752 103.79 62.8263C107.403 42.722 121.223 26.8363 138.749 22.623ZM98.8998 8.0453C101.408 10.2105 107.636 19.0285 110.137 31.7457C105.315 37.3068 101.573 43.7503 99.0313 50.7526C96.472 43.7004 92.6942 37.2143 87.8227 31.6266C90.1917 19.1743 96.1642 10.1344 98.8998 8.0453ZM74.8877 47.3085C74.1947 46.9268 73.4932 46.5578 72.7859 46.1974C68.8046 36.2255 63.4772 28.0943 59.313 22.623C76.8665 26.8433 90.703 42.7723 94.2905 62.9218C88.9407 56.7297 82.3893 51.4386 74.8877 47.3085ZM99.164 82.0919L120.153 103.081L99.164 124.07L78.1752 103.081L99.164 82.0919ZM108.448 80.4375H110.17C119.305 80.4375 127.717 83.5846 134.383 88.851L125.622 97.6117L108.448 80.4375ZM99.1644 135.008L120.889 156.732L99.1644 178.456L77.44 156.732L99.1644 135.008ZM71.9707 151.263L50.9819 130.274L72.7062 108.55L93.695 129.539L71.9707 151.263ZM87.8764 80.4375H89.88L72.7062 97.6113L63.8214 88.7264C70.4617 83.5355 78.8137 80.4375 87.8764 80.4375ZM48.7498 119.564C48.7498 109.832 52.3219 100.92 58.2232 94.0666L67.2372 103.081L48.7498 121.568V119.564ZM53.4728 169.761C50.4618 164.221 48.7501 157.876 48.7501 151.139V138.981L66.5017 156.732L53.4728 169.761ZM87.3884 190.233C87.3799 190.241 87.3725 190.251 87.364 190.259C75.5536 190.107 64.9889 184.696 57.9084 176.264L71.9711 162.201L93.6954 183.926L87.3884 190.233ZM110.17 190.266H98.2935L126.358 162.201L140.268 176.111C133.085 184.753 122.26 190.266 110.17 190.266ZM149.297 151.139C149.297 157.802 147.621 164.08 144.671 169.577L131.827 156.732L149.297 139.262V151.139ZM139.953 94.2194C145.776 101.052 149.297 109.904 149.297 119.564V128.324L126.358 151.263L104.633 129.539L125.622 108.55L130.461 113.388C131.216 114.143 132.206 114.521 133.196 114.521C134.185 114.521 135.175 114.143 135.93 113.388C137.44 111.878 137.44 109.429 135.93 107.919L131.091 103.08L139.953 94.2194ZM130.712 77.4528C124.506 74.4128 117.534 72.7031 110.17 72.7031H105.892C111.635 64.4977 119.512 57.8307 128.797 53.0996C129.58 52.982 130.311 52.6239 130.887 52.0775C137.639 48.9172 145.071 46.7473 152.926 45.7221C146.302 52.5342 137.045 63.5905 130.712 77.4528Z" fill="var(--fill-0, #4ED876)"/>
<path d="M55.9335 58.4846L55.8882 58.4239C54.6089 56.7131 52.1861 56.3631 50.4753 57.6424C48.7648 58.9212 48.4149 61.3448 49.6937 63.0553L49.739 63.116C50.4989 64.1319 51.6614 64.6679 52.8393 64.6679C53.6448 64.6679 54.4573 64.4173 55.1519 63.8975C56.8624 62.6187 57.2123 60.1951 55.9335 58.4846Z" fill="var(--fill-0, #4ED876)"/>
<path d="M144.663 116.653C143.944 115.934 142.947 115.52 141.93 115.52C140.912 115.521 139.915 115.934 139.196 116.653C138.476 117.373 138.062 118.37 138.062 119.387C138.062 120.404 138.476 121.402 139.196 122.122C139.915 122.84 140.912 123.255 141.93 123.255C142.947 123.255 143.944 122.841 144.663 122.122C145.383 121.402 145.797 120.404 145.797 119.387C145.797 118.37 145.383 117.373 144.663 116.653Z" fill="var(--fill-0, #4ED876)"/>
<path d="M101.757 101.189C101.038 100.47 100.04 100.055 99.0232 100.055C98.0061 100.055 97.0084 100.469 96.2891 101.189C95.5698 101.908 95.156 102.905 95.156 103.927C95.156 104.944 95.5694 105.937 96.2891 106.661C97.0084 107.38 98.0061 107.794 99.0232 107.794C100.04 107.794 101.034 107.38 101.757 106.661C102.476 105.937 102.89 104.944 102.89 103.927C102.89 102.906 102.477 101.912 101.757 101.189Z" fill="var(--fill-0, #4ED876)"/>
<path d="M101.757 154.653C101.038 153.933 100.04 153.519 99.0232 153.519C98.0061 153.519 97.0084 153.933 96.2891 154.653C95.5698 155.372 95.156 156.369 95.156 157.386C95.156 158.408 95.5694 159.401 96.2891 160.121C97.0088 160.84 98.0061 161.254 99.0232 161.254C100.04 161.254 101.038 160.844 101.757 160.121C102.476 159.401 102.89 158.403 102.89 157.386C102.89 156.369 102.477 155.372 101.757 154.653Z" fill="var(--fill-0, #4ED876)"/>
<path d="M74.5899 128.116C73.871 127.397 72.8733 126.983 71.8562 126.983C70.8391 126.983 69.8414 127.396 69.1221 128.116C68.4028 128.835 67.989 129.833 67.989 130.85C67.989 131.867 68.4024 132.865 69.1221 133.584C69.8418 134.303 70.8391 134.717 71.8562 134.717C72.8733 134.717 73.871 134.304 74.5899 133.584C75.3092 132.865 75.7234 131.867 75.7234 130.85C75.7234 129.833 75.3096 128.835 74.5899 128.116Z" fill="var(--fill-0, #4ED876)"/>
<path d="M129.207 128.116C128.487 127.397 127.489 126.983 126.473 126.983C125.455 126.983 124.458 127.396 123.739 128.116C123.019 128.835 122.605 129.833 122.605 130.85C122.605 131.867 123.019 132.865 123.739 133.584C124.458 134.303 125.455 134.717 126.473 134.717C127.49 134.717 128.487 134.304 129.207 133.584C129.926 132.864 130.34 131.867 130.34 130.85C130.34 129.833 129.926 128.835 129.207 128.116Z" fill="var(--fill-0, #4ED876)"/>
<path d="M129.203 175.907C128.483 175.187 127.486 174.773 126.469 174.773C125.448 174.773 124.454 175.187 123.731 175.907C123.011 176.626 122.601 177.623 122.601 178.64C122.601 179.658 123.011 180.655 123.731 181.375C124.454 182.094 125.448 182.508 126.469 182.508C127.486 182.508 128.48 182.094 129.203 181.375C129.922 180.651 130.336 179.658 130.336 178.64C130.336 177.623 129.922 176.626 129.203 175.907Z" fill="var(--fill-0, #4ED876)"/>
<path d="M74.5864 175.907C73.8675 175.187 72.8698 174.773 71.8527 174.773C70.8314 174.773 69.8375 175.184 69.1148 175.907C68.3955 176.626 67.9855 177.62 67.9855 178.64C67.9855 179.658 68.3955 180.655 69.1148 181.375C69.8375 182.094 70.8314 182.508 71.8527 182.508C72.8698 182.508 73.8675 182.094 74.5864 181.375C75.3057 180.655 75.7157 179.658 75.7157 178.64C75.7157 177.62 75.3057 176.626 74.5864 175.907Z" fill="var(--fill-0, #4ED876)"/>
</g>
</g>
</svg>
