<svg xmlns="http://www.w3.org/2000/svg" width="88.076" height="14" viewBox="0 0 88.076 14">
  <g id="Grupo_1591" data-name="Grupo 1591" transform="translate(-1146 -230)">
    <g id="noun-star-5480646" transform="translate(1146 230)">
      <path id="Caminho_13" data-name="Caminho 13" d="M9.464,3.9l1.724,3.772a.244.244,0,0,0,.2.146l4.12.474a.709.709,0,0,1,.4,1.229l-3.055,2.8a.244.244,0,0,0-.078.238l.822,4.065a.708.708,0,0,1-1.045.759L8.943,15.347a.249.249,0,0,0-.25,0L5.08,17.385a.708.708,0,0,1-1.045-.759l.822-4.065a.244.244,0,0,0-.078-.238L1.726,9.518a.709.709,0,0,1,.4-1.229l4.121-.474a.244.244,0,0,0,.2-.146L8.172,3.9a.708.708,0,0,1,1.292,0Z" transform="translate(-1.494 -3.479)" fill="#c9c9c9" fill-rule="evenodd"/>
    </g>
    <g id="noun-star-5480646-2" data-name="noun-star-5480646" transform="translate(1164.357 230)">
      <path id="Caminho_13-2" data-name="Caminho 13" d="M9.464,3.9l1.724,3.772a.244.244,0,0,0,.2.146l4.12.474a.709.709,0,0,1,.4,1.229l-3.055,2.8a.244.244,0,0,0-.078.238l.822,4.065a.708.708,0,0,1-1.045.759L8.943,15.347a.249.249,0,0,0-.25,0L5.08,17.385a.708.708,0,0,1-1.045-.759l.822-4.065a.244.244,0,0,0-.078-.238L1.726,9.518a.709.709,0,0,1,.4-1.229l4.121-.474a.244.244,0,0,0,.2-.146L8.172,3.9a.708.708,0,0,1,1.292,0Z" transform="translate(-1.494 -3.479)" fill="#c9c9c9" fill-rule="evenodd"/>
    </g>
    <g id="noun-star-5480646-3" data-name="noun-star-5480646" transform="translate(1182.714 230)">
      <path id="Caminho_13-3" data-name="Caminho 13" d="M9.464,3.9l1.724,3.772a.244.244,0,0,0,.2.146l4.12.474a.709.709,0,0,1,.4,1.229l-3.055,2.8a.244.244,0,0,0-.078.238l.822,4.065a.708.708,0,0,1-1.045.759L8.943,15.347a.249.249,0,0,0-.25,0L5.08,17.385a.708.708,0,0,1-1.045-.759l.822-4.065a.244.244,0,0,0-.078-.238L1.726,9.518a.709.709,0,0,1,.4-1.229l4.121-.474a.244.244,0,0,0,.2-.146L8.172,3.9a.708.708,0,0,1,1.292,0Z" transform="translate(-1.494 -3.479)" fill="#c9c9c9" fill-rule="evenodd"/>
    </g>
    <g id="noun-star-5480646-4" data-name="noun-star-5480646" transform="translate(1201.071 230)">
      <path id="Caminho_13-4" data-name="Caminho 13" d="M9.464,3.9l1.724,3.772a.244.244,0,0,0,.2.146l4.12.474a.709.709,0,0,1,.4,1.229l-3.055,2.8a.244.244,0,0,0-.078.238l.822,4.065a.708.708,0,0,1-1.045.759L8.943,15.347a.249.249,0,0,0-.25,0L5.08,17.385a.708.708,0,0,1-1.045-.759l.822-4.065a.244.244,0,0,0-.078-.238L1.726,9.518a.709.709,0,0,1,.4-1.229l4.121-.474a.244.244,0,0,0,.2-.146L8.172,3.9a.708.708,0,0,1,1.292,0Z" transform="translate(-1.494 -3.479)" fill="#c9c9c9" fill-rule="evenodd"/>
    </g>
    <g id="noun-star-5480646-5" data-name="noun-star-5480646" transform="translate(1219.429 230)">
      <path id="Caminho_13-5" data-name="Caminho 13" d="M9.464,3.9l1.724,3.772a.244.244,0,0,0,.2.146l4.12.474a.709.709,0,0,1,.4,1.229l-3.055,2.8a.244.244,0,0,0-.078.238l.822,4.065a.708.708,0,0,1-1.045.759L8.943,15.347a.249.249,0,0,0-.25,0L5.08,17.385a.708.708,0,0,1-1.045-.759l.822-4.065a.244.244,0,0,0-.078-.238L1.726,9.518a.709.709,0,0,1,.4-1.229l4.121-.474a.244.244,0,0,0,.2-.146L8.172,3.9a.708.708,0,0,1,1.292,0Z" transform="translate(-1.494 -3.479)" fill="#c9c9c9" fill-rule="evenodd"/>
    </g>
  </g>
</svg>
