<svg xmlns="http://www.w3.org/2000/svg" width="89.1" height="178.895" viewBox="0 0 89.1 178.895">
  <g id="Grupo_1619" data-name="Grupo 1619" transform="translate(-30.891 -3052.257)">
    <g id="Polígono_25" data-name="Polígono 25" transform="translate(70.255 3145.85) rotate(41)" fill="#ffce18">
      <path d="M 21.55703544616699 58.50768280029297 L 17.78902053833008 49.04642105102539 L 17.55895042419434 48.46871948242188 L 16.9390697479248 48.41954040527344 L 7.063917636871338 47.63615798950195 L 9.403650283813477 37.6444091796875 L 9.540209770202637 37.06122970581055 L 9.090519905090332 36.66561126708984 L 1.513940215110779 29.99999237060547 L 9.090530395507812 23.33439064025879 L 9.540220260620117 22.93877029418945 L 9.403659820556641 22.3555908203125 L 7.06392765045166 12.36383152008057 L 16.93907928466797 11.58045959472656 L 17.5589599609375 11.53127956390381 L 17.78903007507324 10.95359039306641 L 21.55705642700195 1.492319226264954 L 29.96299934387207 6.843579769134521 L 30.50001907348633 7.185450077056885 L 31.03704071044922 6.843579769134521 L 39.44296264648438 1.492329478263855 L 43.21099090576172 10.95359992980957 L 43.44105911254883 11.53129005432129 L 44.06093978881836 11.58047008514404 L 53.93608093261719 12.36385059356689 L 51.59635162353516 22.35560035705566 L 51.45978927612305 22.93877983093262 L 51.90948104858398 23.33440017700195 L 59.48606109619141 30 L 51.90948104858398 36.66561126708984 L 51.45978927612305 37.06122970581055 L 51.59635162353516 37.6444091796875 L 53.93608093261719 47.63615798950195 L 44.06093978881836 48.41954040527344 L 43.44105911254883 48.46871948242188 L 43.21099090576172 49.04640960693359 L 39.44296264648438 58.50768280029297 L 31.03701972961426 53.15642929077148 L 30.5 52.81455993652344 L 29.96298027038574 53.15642929077148 L 21.55703544616699 58.50768280029297 Z" stroke="none"/>
      <path d="M 22.03911972045898 2.984642028808594 L 18.25791931152344 12.47898101806641 L 8.302864074707031 13.26869201660156 L 10.65044021606445 23.29394912719727 L 3.027881622314453 29.99999237060547 L 10.65042877197266 36.70605087280273 L 8.3028564453125 46.73130035400391 L 18.25790023803711 47.52101898193359 L 22.03910064697266 57.01535415649414 L 30.5 51.62911987304688 L 38.96089935302734 57.01535797119141 L 42.74208831787109 47.52101898193359 L 52.6971435546875 46.73130035400391 L 50.34957122802734 36.70606231689453 L 57.97212219238281 30 L 50.34957122802734 23.29394149780273 L 52.6971435546875 13.26870727539062 L 42.74208831787109 12.47898101806641 L 38.96089935302734 2.984653472900391 L 30.50001907348633 8.370891571044922 L 22.03911972045898 2.984642028808594 M 21.07500076293945 0 L 30.50001907348633 6.000011444091797 L 39.92501831054688 1.1444091796875e-05 L 44.14001083374023 10.58359146118164 L 55.17501831054688 11.45898818969727 L 52.57001113891602 22.58359146118164 L 61 30 L 52.57001113891602 37.41641235351562 L 55.17501831054688 48.54101943969727 L 44.14001083374023 49.41641235351562 L 39.92501831054688 60 L 30.5 54 L 21.07498168945312 59.9999885559082 L 16.85998153686523 49.41641235351562 L 5.824981689453125 48.54101943969727 L 8.429988861083984 37.41640090942383 L 0 29.99999046325684 L 8.430000305175781 22.58359146118164 L 5.824989318847656 11.45896911621094 L 16.86000061035156 10.58359146118164 L 21.07500076293945 0 Z" stroke="none" fill="#0b040a"/>
    </g>
    <path id="Caminho_21" data-name="Caminho 21" d="M32.909,57.08,23.19,61.387l9.719,4.307,4.307,9.719,4.307-9.719,9.71-4.307-9.71-4.307-4.307-9.71Z" transform="translate(65.059 3008.587)" fill="#fff" stroke="#0b040a" stroke-width="3"/>
  </g>
</svg>
